<svg width="60" height="46" viewBox="0 0 60 46" fill="none" xmlns="http://www.w3.org/2000/svg">
<path d="M50.7926 3.92438C46.9684 2.16973 42.8676 0.876915 38.5798 0.136408C38.5018 0.122111 38.4237 0.157853 38.3835 0.22922C37.8561 1.16731 37.2719 2.39098 36.8628 3.35285C32.2511 2.66238 27.663 2.66238 23.1459 3.35285C22.7366 2.36965 22.1312 1.16731 21.6014 0.22922C21.5612 0.160197 21.4832 0.124455 21.4051 0.136408C17.1198 0.874454 13.019 2.16727 9.19234 3.92438C9.15917 3.93867 9.13081 3.96246 9.11194 3.9934C1.3335 15.6143 -0.797434 26.9496 0.247879 38.1443C0.252566 38.199 0.283387 38.2514 0.325926 38.2848C5.45792 42.0537 10.4292 44.3416 15.3081 45.8583C15.3862 45.8821 15.4689 45.8536 15.5186 45.7892C16.6726 44.2132 17.7014 42.5514 18.5835 40.8037C18.6355 40.7014 18.5859 40.5799 18.4794 40.5395C16.8476 39.9205 15.2938 39.1657 13.7991 38.3087C13.6809 38.2397 13.6714 38.0706 13.7802 37.9896C14.0948 37.7539 14.4094 37.5087 14.7098 37.2611C14.7641 37.2158 14.8398 37.2063 14.9037 37.2348C24.7231 41.718 35.3537 41.718 45.0572 37.2348C45.1211 37.2039 45.1968 37.2135 45.2535 37.2586C45.554 37.5062 45.8685 37.7538 46.1854 37.9895C46.2941 38.0705 46.287 38.2396 46.1689 38.3086C44.6741 39.1823 43.1204 39.9204 41.4862 40.537C41.3798 40.5775 41.3324 40.7013 41.3846 40.8036C42.2856 42.5488 43.3144 44.2106 44.4472 45.7868C44.4945 45.8535 44.5796 45.8821 44.6576 45.8582C49.5602 44.3416 54.5315 42.0535 59.6635 38.2847C59.7085 38.2514 59.7368 38.2014 59.7415 38.1466C60.9926 25.2043 57.6461 13.962 50.8704 3.99574C50.854 3.96246 50.8257 3.93867 50.7926 3.92438ZM20.0501 31.3278C17.0938 31.3278 14.6578 28.6138 14.6578 25.2805C14.6578 21.9473 17.0465 19.2332 20.0501 19.2332C23.0772 19.2332 25.4896 21.9711 25.4423 25.2805C25.4423 28.6138 23.0535 31.3278 20.0501 31.3278ZM39.9869 31.3278C37.0307 31.3278 34.5947 28.6138 34.5947 25.2805C34.5947 21.9473 36.9834 19.2332 39.9869 19.2332C43.0141 19.2332 45.4264 21.9711 45.3791 25.2805C45.3791 28.6138 43.0142 31.3278 39.9869 31.3278Z" fill="white"/>
</svg>
