<svg width="697" height="35" viewBox="0 0 697 35" fill="none" xmlns="http://www.w3.org/2000/svg">
<line x1="4.37114e-08" y1="20.1016" x2="236" y2="20.1016" stroke="url(#paint0_linear_2_2)"/>
<path d="M236.414 20.1016L240.5 16.0158L244.586 20.1016L240.5 24.1873L236.414 20.1016Z" stroke="#14D03F" stroke-width="2"/>
<line y1="-0.5" x2="236" y2="-0.5" transform="matrix(-1 8.74228e-08 8.74228e-08 1 697 20.6016)" stroke="url(#paint1_linear_2_2)"/>
<path d="M460.586 20.1016L456.5 16.0158L452.414 20.1016L456.5 24.1873L460.586 20.1016Z" stroke="#14D03F" stroke-width="2"/>
<path d="M277.489 14.661C277.489 15.995 277.029 17.1067 276.109 17.996C275.204 18.87 273.817 19.307 271.946 19.307H268.864V26H266.771V9.969H271.946C273.755 9.969 275.128 10.406 276.063 11.28C277.014 12.154 277.489 13.281 277.489 14.661ZM271.946 17.582C273.111 17.582 273.97 17.329 274.522 16.823C275.074 16.317 275.35 15.5963 275.35 14.661C275.35 12.683 274.215 11.694 271.946 11.694H268.864V17.582H271.946ZM282.183 15.443C282.551 14.7223 283.073 14.1627 283.747 13.764C284.437 13.3653 285.273 13.166 286.254 13.166V15.328H285.702C283.356 15.328 282.183 16.6007 282.183 19.146V26H280.09V13.396H282.183V15.443ZM289.751 11.349C289.353 11.349 289.015 11.211 288.739 10.935C288.463 10.659 288.325 10.3217 288.325 9.923C288.325 9.52433 288.463 9.187 288.739 8.911C289.015 8.635 289.353 8.497 289.751 8.497C290.135 8.497 290.457 8.635 290.717 8.911C290.993 9.187 291.131 9.52433 291.131 9.923C291.131 10.3217 290.993 10.659 290.717 10.935C290.457 11.211 290.135 11.349 289.751 11.349ZM290.763 13.396V26H288.67V13.396H290.763ZM299.023 24.068L302.933 13.396H305.164L300.219 26H297.781L292.836 13.396H295.09L299.023 24.068ZM306.441 19.652C306.441 18.364 306.702 17.237 307.223 16.271C307.744 15.2897 308.457 14.5307 309.362 13.994C310.282 13.4573 311.302 13.189 312.421 13.189C313.525 13.189 314.483 13.4267 315.296 13.902C316.109 14.3773 316.714 14.9753 317.113 15.696V13.396H319.229V26H317.113V23.654C316.699 24.39 316.078 25.0033 315.25 25.494C314.437 25.9693 313.487 26.207 312.398 26.207C311.279 26.207 310.267 25.931 309.362 25.379C308.457 24.827 307.744 24.0527 307.223 23.056C306.702 22.0593 306.441 20.9247 306.441 19.652ZM317.113 19.675C317.113 18.7243 316.921 17.8963 316.538 17.191C316.155 16.4857 315.633 15.949 314.974 15.581C314.33 15.1977 313.617 15.006 312.835 15.006C312.053 15.006 311.34 15.19 310.696 15.558C310.052 15.926 309.538 16.4627 309.155 17.168C308.772 17.8733 308.58 18.7013 308.58 19.652C308.58 20.618 308.772 21.4613 309.155 22.182C309.538 22.8873 310.052 23.4317 310.696 23.815C311.34 24.183 312.053 24.367 312.835 24.367C313.617 24.367 314.33 24.183 314.974 23.815C315.633 23.4317 316.155 22.8873 316.538 22.182C316.921 21.4613 317.113 20.6257 317.113 19.675ZM325.319 15.121V22.55C325.319 23.1633 325.449 23.6003 325.71 23.861C325.971 24.1063 326.423 24.229 327.067 24.229H328.608V26H326.722C325.557 26 324.683 25.7317 324.1 25.195C323.517 24.6583 323.226 23.7767 323.226 22.55V15.121H321.593V13.396H323.226V10.222H325.319V13.396H328.608V15.121H325.319ZM342.644 19.215C342.644 19.6137 342.621 20.0353 342.575 20.48H332.501C332.578 21.722 332.999 22.6957 333.766 23.401C334.548 24.091 335.491 24.436 336.595 24.436C337.5 24.436 338.251 24.229 338.849 23.815C339.462 23.3857 339.892 22.8183 340.137 22.113H342.391C342.054 23.3243 341.379 24.3133 340.367 25.08C339.355 25.8313 338.098 26.207 336.595 26.207C335.399 26.207 334.326 25.9387 333.375 25.402C332.44 24.8653 331.704 24.1063 331.167 23.125C330.63 22.1283 330.362 20.9783 330.362 19.675C330.362 18.3717 330.623 17.2293 331.144 16.248C331.665 15.2667 332.394 14.5153 333.329 13.994C334.28 13.4573 335.368 13.189 336.595 13.189C337.791 13.189 338.849 13.4497 339.769 13.971C340.689 14.4923 341.394 15.213 341.885 16.133C342.391 17.0377 342.644 18.065 342.644 19.215ZM340.482 18.778C340.482 17.9807 340.306 17.2983 339.953 16.731C339.6 16.1483 339.117 15.7113 338.504 15.42C337.906 15.1133 337.239 14.96 336.503 14.96C335.445 14.96 334.54 15.2973 333.789 15.972C333.053 16.6467 332.631 17.582 332.524 18.778H340.482ZM362.257 14.661C362.257 15.995 361.797 17.1067 360.877 17.996C359.972 18.87 358.584 19.307 356.714 19.307H353.632V26H351.539V9.969H356.714C358.523 9.969 359.895 10.406 360.831 11.28C361.781 12.154 362.257 13.281 362.257 14.661ZM356.714 17.582C357.879 17.582 358.738 17.329 359.29 16.823C359.842 16.317 360.118 15.5963 360.118 14.661C360.118 12.683 358.983 11.694 356.714 11.694H353.632V17.582H356.714ZM366.951 15.443C367.319 14.7223 367.84 14.1627 368.515 13.764C369.205 13.3653 370.041 13.166 371.022 13.166V15.328H370.47C368.124 15.328 366.951 16.6007 366.951 19.146V26H364.858V13.396H366.951V15.443ZM384.938 19.215C384.938 19.6137 384.915 20.0353 384.869 20.48H374.795C374.872 21.722 375.293 22.6957 376.06 23.401C376.842 24.091 377.785 24.436 378.889 24.436C379.794 24.436 380.545 24.229 381.143 23.815C381.756 23.3857 382.186 22.8183 382.431 22.113H384.685C384.348 23.3243 383.673 24.3133 382.661 25.08C381.649 25.8313 380.392 26.207 378.889 26.207C377.693 26.207 376.62 25.9387 375.669 25.402C374.734 24.8653 373.998 24.1063 373.461 23.125C372.924 22.1283 372.656 20.9783 372.656 19.675C372.656 18.3717 372.917 17.2293 373.438 16.248C373.959 15.2667 374.688 14.5153 375.623 13.994C376.574 13.4573 377.662 13.189 378.889 13.189C380.085 13.189 381.143 13.4497 382.063 13.971C382.983 14.4923 383.688 15.213 384.179 16.133C384.685 17.0377 384.938 18.065 384.938 19.215ZM382.776 18.778C382.776 17.9807 382.6 17.2983 382.247 16.731C381.894 16.1483 381.411 15.7113 380.798 15.42C380.2 15.1133 379.533 14.96 378.797 14.96C377.739 14.96 376.834 15.2973 376.083 15.972C375.347 16.6467 374.925 17.582 374.818 18.778H382.776ZM392.163 26.207C391.197 26.207 390.33 26.046 389.564 25.724C388.797 25.3867 388.191 24.9267 387.747 24.344C387.302 23.746 387.057 23.0637 387.011 22.297H389.173C389.234 22.9257 389.525 23.4393 390.047 23.838C390.583 24.2367 391.281 24.436 392.14 24.436C392.937 24.436 393.566 24.2597 394.026 23.907C394.486 23.5543 394.716 23.1097 394.716 22.573C394.716 22.021 394.47 21.6147 393.98 21.354C393.489 21.078 392.73 20.8097 391.703 20.549C390.767 20.3037 390.001 20.0583 389.403 19.813C388.82 19.5523 388.314 19.1767 387.885 18.686C387.471 18.18 387.264 17.5207 387.264 16.708C387.264 16.064 387.455 15.4737 387.839 14.937C388.222 14.4003 388.766 13.9787 389.472 13.672C390.177 13.35 390.982 13.189 391.887 13.189C393.282 13.189 394.409 13.5417 395.268 14.247C396.126 14.9523 396.586 15.9183 396.648 17.145H394.555C394.509 16.4857 394.24 15.9567 393.75 15.558C393.274 15.1593 392.63 14.96 391.818 14.96C391.066 14.96 390.468 15.121 390.024 15.443C389.579 15.765 389.357 16.1867 389.357 16.708C389.357 17.122 389.487 17.467 389.748 17.743C390.024 18.0037 390.361 18.2183 390.76 18.387C391.174 18.5403 391.741 18.7167 392.462 18.916C393.366 19.1613 394.102 19.4067 394.67 19.652C395.237 19.882 395.72 20.2347 396.119 20.71C396.533 21.1853 396.747 21.8063 396.763 22.573C396.763 23.263 396.571 23.884 396.188 24.436C395.804 24.988 395.26 25.425 394.555 25.747C393.865 26.0537 393.067 26.207 392.163 26.207ZM398.935 19.652C398.935 18.364 399.196 17.237 399.717 16.271C400.239 15.2897 400.952 14.5307 401.856 13.994C402.776 13.4573 403.796 13.189 404.915 13.189C406.019 13.189 406.978 13.4267 407.79 13.902C408.603 14.3773 409.209 14.9753 409.607 15.696V13.396H411.723V26H409.607V23.654C409.193 24.39 408.572 25.0033 407.744 25.494C406.932 25.9693 405.981 26.207 404.892 26.207C403.773 26.207 402.761 25.931 401.856 25.379C400.952 24.827 400.239 24.0527 399.717 23.056C399.196 22.0593 398.935 20.9247 398.935 19.652ZM409.607 19.675C409.607 18.7243 409.416 17.8963 409.032 17.191C408.649 16.4857 408.128 15.949 407.468 15.581C406.824 15.1977 406.111 15.006 405.329 15.006C404.547 15.006 403.834 15.19 403.19 15.558C402.546 15.926 402.033 16.4627 401.649 17.168C401.266 17.8733 401.074 18.7013 401.074 19.652C401.074 20.618 401.266 21.4613 401.649 22.182C402.033 22.8873 402.546 23.4317 403.19 23.815C403.834 24.183 404.547 24.367 405.329 24.367C406.111 24.367 406.824 24.183 407.468 23.815C408.128 23.4317 408.649 22.8873 409.032 22.182C409.416 21.4613 409.607 20.6257 409.607 19.675ZM417.353 8.98V26H415.26V8.98H417.353ZM432.42 19.215C432.42 19.6137 432.397 20.0353 432.351 20.48H422.277C422.354 21.722 422.776 22.6957 423.542 23.401C424.324 24.091 425.267 24.436 426.371 24.436C427.276 24.436 428.027 24.229 428.625 23.815C429.239 23.3857 429.668 22.8183 429.913 22.113H432.167C431.83 23.3243 431.155 24.3133 430.143 25.08C429.131 25.8313 427.874 26.207 426.371 26.207C425.175 26.207 424.102 25.9387 423.151 25.402C422.216 24.8653 421.48 24.1063 420.943 23.125C420.407 22.1283 420.138 20.9783 420.138 19.675C420.138 18.3717 420.399 17.2293 420.92 16.248C421.442 15.2667 422.17 14.5153 423.105 13.994C424.056 13.4573 425.145 13.189 426.371 13.189C427.567 13.189 428.625 13.4497 429.545 13.971C430.465 14.4923 431.171 15.213 431.661 16.133C432.167 17.0377 432.42 18.065 432.42 19.215ZM430.258 18.778C430.258 17.9807 430.082 17.2983 429.729 16.731C429.377 16.1483 428.894 15.7113 428.28 15.42C427.682 15.1133 427.015 14.96 426.279 14.96C425.221 14.96 424.317 15.2973 423.565 15.972C422.829 16.6467 422.408 17.582 422.3 18.778H430.258Z" fill="#727F9D"/>
<defs>
<linearGradient id="paint0_linear_2_2" x1="118" y1="20.6016" x2="6" y2="20.6016" gradientUnits="userSpaceOnUse">
<stop stop-color="#14D03F"/>
<stop offset="1" stop-color="#14D03F" stop-opacity="0"/>
</linearGradient>
<linearGradient id="paint1_linear_2_2" x1="118" y1="5.52636e-07" x2="6" y2="2.81012e-08" gradientUnits="userSpaceOnUse">
<stop stop-color="#14D03F"/>
<stop offset="1" stop-color="#14D03F" stop-opacity="0"/>
</linearGradient>
</defs>
</svg>
