<svg width="20" height="16" viewBox="0 0 20 16" fill="none" xmlns="http://www.w3.org/2000/svg">
<path d="M0 8.55561V7.4445C0 7.13767 0.223858 6.88894 0.5 6.88894H16.67L12.22 1.95561C12.1253 1.85129 12.0721 1.7093 12.0721 1.56116C12.0721 1.41303 12.1253 1.27103 12.22 1.16672L12.93 0.388942C13.0239 0.283768 13.1517 0.224609 13.285 0.224609C13.4183 0.224609 13.5461 0.283768 13.64 0.388942L19.78 7.20005C19.9207 7.35618 19.9998 7.568 20 7.78894V8.21116C19.9977 8.43162 19.9189 8.64258 19.78 8.80005L13.64 15.6112C13.5461 15.7163 13.4183 15.7755 13.285 15.7755C13.1517 15.7755 13.0239 15.7163 12.93 15.6112L12.22 14.8223C12.1259 14.7199 12.0729 14.5797 12.0729 14.4334C12.0729 14.2871 12.1259 14.1469 12.22 14.0445L16.67 9.11116H0.5C0.223858 9.11116 0 8.86243 0 8.55561Z" fill="#14D03F"/>
</svg>
