<svg width="278" height="278" viewBox="0 0 278 278" fill="none" xmlns="http://www.w3.org/2000/svg">
<g clip-path="url(#clip0_563_10504)">
<path d="M214.279 129.421H63.8607C43.1996 129.421 26.3915 112.604 26.3915 91.9337C26.3915 71.279 43.1996 54.476 63.8607 54.476H157.876C163.155 54.476 167.432 50.1975 167.432 44.9201C167.432 39.6427 163.155 35.3643 157.876 35.3643H63.8607C32.6627 35.3643 7.27979 60.7408 7.27979 91.9337C7.27979 123.142 32.6627 148.532 63.8607 148.532H214.279C234.94 148.532 251.748 165.349 251.748 186.021C251.748 206.675 234.94 223.478 214.279 223.478H119.452C114.174 223.478 109.896 227.757 109.896 233.034C109.896 238.312 114.174 242.59 119.452 242.59H214.279C245.477 242.59 270.86 217.214 270.86 186.021C270.86 154.811 245.477 129.421 214.279 129.421Z" fill="white"/>
<path d="M62.5128 166.24C40.3342 166.24 22.2915 184.284 22.2915 206.461C22.2915 240.691 54.389 273.183 55.7561 274.549C57.5488 276.342 59.9786 277.348 62.514 277.348C65.0483 277.348 67.4793 276.342 69.272 274.549C70.6378 273.182 102.734 240.691 102.734 206.461C102.731 184.284 84.69 166.24 62.5128 166.24ZM62.5128 253.334C54.2603 243.147 41.4032 224.395 41.4032 206.461C41.4032 194.821 50.8737 185.352 62.5128 185.352C74.1518 185.352 83.6198 194.822 83.6198 206.461C83.6198 224.395 70.7627 243.147 62.5128 253.334Z" fill="white"/>
<path d="M214.816 111.71C217.262 111.71 219.707 110.778 221.572 108.914C222.939 107.548 255.053 75.0566 255.053 40.825C255.053 18.6477 237.003 0.60498 214.816 0.60498C192.638 0.60498 174.595 18.6477 174.595 40.8237C174.595 75.0541 206.693 107.545 208.061 108.911C209.925 110.778 212.37 111.71 214.816 111.71ZM214.816 19.7167C226.466 19.7167 235.941 29.1859 235.941 40.8237C235.941 58.7581 223.073 77.5131 214.818 87.6984C206.567 77.5131 193.707 58.7594 193.707 40.8237C193.706 29.1859 203.176 19.7167 214.816 19.7167Z" fill="white"/>
</g>
<defs>
<clipPath id="clip0_563_10504">
<rect width="276.744" height="276.744" fill="white" transform="translate(0.697754 0.60498)"/>
</clipPath>
</defs>
</svg>
