<?xml version="1.0" encoding="utf-8"?>
<!-- Generator: Adobe Illustrator 24.3.0, SVG Export Plug-In . SVG Version: 6.00 Build 0)  -->
<svg version="1.1" id="Layer_1" xmlns="http://www.w3.org/2000/svg" xmlns:xlink="http://www.w3.org/1999/xlink" x="0px" y="0px"
	 viewBox="0 0 697 35" style="enable-background:new 0 0 697 35;" xml:space="preserve">
<style type="text/css">
	.st0{fill:none;stroke:url(#SVGID_1_);}
	.st1{fill:none;stroke:#14D03F;stroke-width:2;}
	.st2{fill:none;stroke:url(#SVGID_2_);}
	.st3{fill:#727F9D;}
</style>
<linearGradient id="SVGID_1_" gradientUnits="userSpaceOnUse" x1="118" y1="884.1" x2="6" y2="884.1" gradientTransform="matrix(1 0 0 1 0 -864)">
	<stop  offset="0" style="stop-color:#14D03F"/>
	<stop  offset="1" style="stop-color:#14D03F;stop-opacity:0"/>
</linearGradient>
<line class="st0" x1="0" y1="20.1" x2="236" y2="20.1"/>
<path class="st1" d="M236.4,20.1l4.1-4.1l4.1,4.1l-4.1,4.1L236.4,20.1z"/>
<linearGradient id="SVGID_2_" gradientUnits="userSpaceOnUse" x1="-2326" y1="863.4984" x2="-2438" y2="863.4984" gradientTransform="matrix(-1 0 0 1 -1747 -843.3984)">
	<stop  offset="0" style="stop-color:#14D03F"/>
	<stop  offset="1" style="stop-color:#14D03F;stop-opacity:0"/>
</linearGradient>
<line class="st2" x1="697" y1="20.1" x2="461" y2="20.1"/>
<path class="st1" d="M460.6,20.1l-4.1-4.1l-4.1,4.1l4.1,4.1L460.6,20.1z"/>
<g>
	<path class="st3" d="M266.2,27.5c-1-0.5-1.8-1.2-2.5-2c-0.7-0.8-1-1.8-1-3h2.8c0.2,1,0.5,1.8,1.2,2.5c0.7,0.7,1.7,1,3,1
		s2.3-0.3,3-1c0.7-0.7,1.2-1.5,1.2-2.5c0-0.8-0.2-1.5-0.7-1.8c-0.5-0.5-1-0.8-1.7-1.2s-1.5-0.5-2.7-0.8c-1.3-0.3-2.5-0.7-3.2-1
		s-1.5-0.8-2-1.7c-0.5-0.8-0.8-1.8-0.8-3s0.3-2.2,0.8-3c0.5-0.8,1.3-1.5,2.3-2s2.2-0.7,3.5-0.7c1.8,0,3.5,0.5,4.7,1.5
		c1.2,1,1.8,2.2,2,3.8h-3c-0.2-0.8-0.5-1.5-1.2-2c-0.7-0.7-1.7-0.8-2.8-0.8c-1.2,0-2,0.3-2.7,0.8s-1,1.3-1,2.5
		c0,0.7,0.2,1.3,0.7,1.8s1,0.8,1.5,1s1.5,0.5,2.7,0.8c1.3,0.3,2.5,0.7,3.3,1.2s1.5,1,2.2,1.7c0.7,0.8,0.8,1.8,0.8,3
		c0,1-0.3,2-0.8,2.8c-0.5,0.8-1.3,1.7-2.3,2.2s-2.3,0.8-3.7,0.8C268.6,28.3,267.4,28,266.2,27.5z"/>
	<path class="st3" d="M295.3,21h-12.8c0.2,1.7,0.7,2.8,1.7,3.7c1,0.8,2.2,1.3,3.7,1.3c1.2,0,2.2-0.3,2.8-0.8
		c0.8-0.5,1.3-1.3,1.7-2.2h2.8c-0.5,1.5-1.3,2.8-2.5,3.8c-1.3,1-2.8,1.5-4.8,1.5c-1.5,0-2.8-0.3-4.2-1c-1.2-0.7-2.2-1.7-2.8-3
		c-0.7-1.3-1-2.7-1-4.3c0-1.7,0.3-3.2,1-4.3s1.7-2.2,2.8-2.8c1.2-0.7,2.7-1,4.2-1s2.8,0.3,4,1c1.2,0.7,2,1.5,2.7,2.7s1,2.5,1,4
		C295.4,19.8,295.3,20.5,295.3,21z M291.9,16.2c-0.5-0.7-1-1.3-1.8-1.7s-1.7-0.5-2.5-0.5c-1.3,0-2.5,0.5-3.5,1.3
		c-1,0.8-1.5,2-1.7,3.5h10.2C292.6,17.8,292.4,17,291.9,16.2z"/>
	<path class="st3" d="M313.5,21h-12.8c0.2,1.7,0.7,2.8,1.7,3.7c1,0.8,2.2,1.3,3.7,1.3c1.2,0,2.2-0.3,2.8-0.8
		c0.8-0.5,1.3-1.3,1.7-2.2h2.8c-0.5,1.5-1.3,2.8-2.5,3.8c-1.3,1-2.8,1.5-4.8,1.5c-1.5,0-2.8-0.3-4.2-1c-1.2-0.7-2.2-1.7-2.8-3
		c-0.7-1.3-1-2.7-1-4.3c0-1.7,0.3-3.2,1-4.3s1.7-2.2,2.8-2.8c1.2-0.7,2.7-1,4.2-1c1.5,0,2.8,0.3,4,1c1.2,0.7,2,1.5,2.7,2.7
		s1,2.5,1,4C313.6,19.8,313.5,20.5,313.5,21z M310.1,16.2c-0.5-0.7-1-1.3-1.8-1.7c-0.8-0.3-1.7-0.5-2.5-0.5c-1.3,0-2.5,0.5-3.5,1.3
		c-1,0.8-1.5,2-1.7,3.5h10.2C310.8,17.8,310.6,17,310.1,16.2z"/>
	<path class="st3" d="M317.1,15.7c0.7-1.2,1.5-2.2,2.7-2.8c1.2-0.7,2.5-1,3.8-1s2.3,0.3,3.5,0.8c1,0.5,1.8,1.3,2.5,2.3V6.5h2.7v21.7
		h-2.7v-3c-0.5,1-1.3,1.7-2.3,2.3s-2.2,1-3.7,1c-1.5,0-2.7-0.3-3.8-1c-1.2-0.7-2-1.7-2.7-3c-0.7-1.3-1-2.7-1-4.3
		C316.1,18.3,316.5,16.8,317.1,15.7z M329,16.8c-0.5-0.8-1.2-1.7-2-2c-0.8-0.5-1.7-0.7-2.7-0.7c-1,0-1.8,0.2-2.7,0.7s-1.5,1.2-2,2
		c-0.5,0.8-0.7,2-0.7,3.2c0,1.2,0.2,2.3,0.7,3.2s1.2,1.7,2,2c0.8,0.5,1.7,0.7,2.7,0.7c1,0,1.8-0.2,2.7-0.7s1.5-1.2,2-2
		c0.5-0.8,0.7-2,0.7-3.2S329.5,17.7,329,16.8z"/>
	<path class="st3" d="M355.5,28l-4.8-8.3h-3.2V28h-2.7V7.7h6.7c1.5,0,2.8,0.3,3.8,0.8c1,0.5,1.8,1.2,2.3,2.2c0.5,0.8,0.8,2,0.8,3
		c0,1.3-0.3,2.7-1.2,3.7c-0.8,1-2,1.8-3.7,2.2l5.2,8.5H355.5z M347.5,17.5h4c1.5,0,2.5-0.3,3.3-1c0.7-0.7,1.2-1.7,1.2-2.8
		s-0.3-2.2-1-2.8s-1.8-1-3.3-1h-4v7.7H347.5z"/>
	<path class="st3" d="M365.5,27.3c-1.2-0.7-2.2-1.7-2.8-3c-0.7-1.3-1-2.7-1-4.3c0-1.7,0.3-3.2,1-4.3c0.7-1.3,1.7-2.2,3-2.8
		c1.2-0.7,2.7-1,4.2-1c1.5,0,2.8,0.3,4.2,1c1.2,0.7,2.2,1.7,3,2.8s1,2.7,1,4.3c0,1.7-0.3,3.2-1.2,4.3c-0.7,1.3-1.7,2.2-3,3
		c-1.3,0.7-2.7,1-4.2,1S366.9,28,365.5,27.3z M372.4,25.3c0.8-0.5,1.5-1.2,2-2s0.8-2,0.8-3.3s-0.3-2.3-0.8-3.3c-0.5-0.8-1.2-1.5-2-2
		c-0.8-0.5-1.7-0.7-2.7-0.7s-1.8,0.2-2.7,0.7c-0.8,0.5-1.5,1.2-2,2c-0.5,0.8-0.7,2-0.7,3.3s0.2,2.3,0.7,3.3c0.5,0.8,1.2,1.5,2,2
		c0.8,0.5,1.7,0.7,2.7,0.7S371.5,25.7,372.4,25.3z"/>
	<path class="st3" d="M395.7,12v16h-2.7v-2.3c-0.5,0.8-1.2,1.5-2.2,2c-1,0.5-1.8,0.7-3,0.7c-1.3,0-2.3-0.3-3.3-0.8s-1.8-1.3-2.3-2.3
		c-0.5-1-0.8-2.3-0.8-3.8V12h2.7v9c0,1.7,0.3,2.8,1.2,3.7c0.8,0.8,1.8,1.3,3.3,1.3s2.5-0.5,3.3-1.3c0.8-0.8,1.2-2.2,1.2-3.8V12
		C393.1,12,395.7,12,395.7,12z"/>
	<path class="st3" d="M412.7,13.5c1.2,1.2,1.8,2.8,1.8,5.2v9.5h-2.7V19c0-1.7-0.3-2.8-1.2-3.7c-0.8-0.8-1.8-1.3-3.3-1.3
		c-1.3,0-2.5,0.5-3.3,1.3c-0.8,0.8-1.2,2.2-1.2,3.8V28h-2.7V12h2.7v2.3c0.5-0.8,1.2-1.5,2.2-1.8c0.8-0.5,1.8-0.7,3-0.7
		C410.1,11.7,411.6,12.3,412.7,13.5z"/>
	<path class="st3" d="M419.1,15.7c0.7-1.2,1.5-2.2,2.7-2.8c1.2-0.7,2.5-1,3.8-1s2.3,0.3,3.5,0.8c1,0.5,1.8,1.3,2.5,2.3V6.5h2.7v21.7
		h-2.7v-3c-0.5,1-1.3,1.7-2.3,2.3c-1,0.7-2.2,1-3.7,1c-1.5,0-2.7-0.3-3.8-1c-1.2-0.7-2-1.7-2.7-3c-0.7-1.3-1-2.7-1-4.3
		C418.1,18.3,418.4,16.8,419.1,15.7z M430.9,16.8c-0.5-0.8-1.2-1.7-2-2c-0.8-0.5-1.7-0.7-2.7-0.7s-1.8,0.2-2.7,0.7s-1.5,1.2-2,2
		c-0.5,0.8-0.7,2-0.7,3.2c0,1.2,0.2,2.3,0.7,3.2s1.2,1.7,2,2c0.8,0.5,1.7,0.7,2.7,0.7s1.8-0.2,2.7-0.7c0.8-0.5,1.5-1.2,2-2
		c0.5-0.8,0.7-2,0.7-3.2S431.4,17.7,430.9,16.8z"/>
</g>
</svg>
