<svg width="44" height="44" viewBox="0 0 44 44" fill="none" xmlns="http://www.w3.org/2000/svg">
<ellipse cx="21.8927" cy="22" rx="21.8927" ry="22" fill="#2976CA"/>
<path d="M31.4772 33.5001C33.1895 32.0592 34.5582 30.2505 35.4824 28.2073C36.4066 26.1641 36.8628 23.9386 36.8174 21.6947C36.7719 19.4508 36.2259 17.2457 35.2197 15.2421C34.2135 13.2384 32.7727 11.4872 31.0034 10.1174L29.5982 11.9504C31.0945 13.1088 32.3131 14.5899 33.1641 16.2845C34.0151 17.9791 34.4769 19.844 34.5153 21.7418C34.5538 23.6395 34.1679 25.5218 33.3863 27.2498C32.6046 28.9778 31.447 30.5075 29.9989 31.7262L31.4772 33.5001Z" fill="white"/>
<path d="M13.0899 9.88666C11.2863 11.2104 9.80129 12.9239 8.74429 14.901C7.68729 16.8781 7.08527 19.0684 6.98258 21.3103C6.8799 23.5523 7.27917 25.7889 8.15097 27.8552C9.02277 29.9215 10.3449 31.7649 12.0199 33.2495L13.5429 31.5142C12.1263 30.2586 11.0082 28.6996 10.2708 26.952C9.53351 25.2044 9.19583 23.3129 9.28267 21.4167C9.36952 19.5206 9.87868 17.6682 10.7726 15.9961C11.6666 14.3239 12.9225 12.8747 14.4479 11.7552L13.0899 9.88666Z" fill="white"/>
<path d="M26.5832 24.9748C26.5832 25.8801 26.2479 26.6512 25.5774 27.2883C24.9179 27.9142 23.9568 28.2942 22.6938 28.4283V30.306H21.3191V28.4451C20.4921 28.3892 19.7097 28.2383 18.9721 27.9924C18.2344 27.7465 17.6476 27.4336 17.2118 27.0536L17.9662 25.3604C18.3797 25.6957 18.8826 25.9807 19.475 26.2154C20.0674 26.4389 20.6821 26.5786 21.3191 26.6345V23.2815C20.5256 23.0915 19.8606 22.8848 19.3241 22.6612C18.7988 22.4265 18.3574 22.0912 17.9997 21.6554C17.6421 21.2083 17.4632 20.6215 17.4632 19.8951C17.4632 18.9898 17.7929 18.2186 18.4524 17.5815C19.1118 16.9445 20.0674 16.5645 21.3191 16.4415V14.5471H22.6938V16.408C23.3197 16.4415 23.9288 16.5477 24.5212 16.7265C25.1247 16.9054 25.65 17.1401 26.0971 17.4307L25.4097 19.1239C24.5603 18.6321 23.655 18.3304 22.6938 18.2186V21.6051C23.4985 21.7951 24.1635 22.0018 24.6888 22.2254C25.2253 22.4489 25.6724 22.7842 26.03 23.2312C26.3988 23.6671 26.5832 24.2483 26.5832 24.9748ZM19.6259 19.7945C19.6259 20.1633 19.7712 20.4595 20.0618 20.683C20.3524 20.9065 20.7715 21.0965 21.3191 21.253V18.2689C20.7491 18.3583 20.3244 18.5371 20.045 18.8054C19.7656 19.0736 19.6259 19.4033 19.6259 19.7945ZM22.6938 26.601C23.2862 26.5115 23.7221 26.3383 24.0015 26.0812C24.2921 25.8242 24.4374 25.5057 24.4374 25.1257C24.4374 24.7457 24.2865 24.4439 23.9847 24.2204C23.6829 23.9857 23.2526 23.7901 22.6938 23.6336V26.601Z" fill="white"/>
</svg>
