<svg
        width="128"
        height="25"
        viewBox="0 0 128 25"
        fill="none"
        xmlns="http://www.w3.org/2000/svg"
      >
        <path
          d="M5.24 20.24C8.54 20.24 10.28 18.54 10.28 15.08V6H2.14V8.6H7.06V15.26C7.06 16.8 6.38 17.58 5.08 17.58C4.08 17.58 3.24 17.06 2.48 16.04L0.68 18.2C1.7 19.52 3.36 20.24 5.24 20.24ZM20.2603 20.24C24.6603 20.24 27.9203 17.18 27.9203 13C27.9203 8.82 24.6603 5.76 20.2603 5.76C15.8403 5.76 12.6003 8.84 12.6003 13C12.6003 17.16 15.8403 20.24 20.2603 20.24ZM20.2603 17.48C17.7603 17.48 15.8803 15.66 15.8803 13C15.8803 10.34 17.7603 8.52 20.2603 8.52C22.7603 8.52 24.6403 10.34 24.6403 13C24.6403 15.66 22.7603 17.48 20.2603 17.48ZM41.9098 6H38.7298L34.9898 12.22L31.2498 6H27.8098L33.2298 15V20H36.4698V15.04L41.9098 6ZM47.5725 20.24C51.5725 20.24 53.5125 18.24 53.5125 15.9C53.5125 10.76 45.3725 12.54 45.3725 9.96C45.3725 9.08 46.1125 8.36 48.0325 8.36C49.2725 8.36 50.6125 8.72 51.9125 9.46L52.9125 7C51.6125 6.18 49.8125 5.76 48.0525 5.76C44.0725 5.76 42.1525 7.74 42.1525 10.12C42.1525 15.32 50.2925 13.52 50.2925 16.14C50.2925 17 49.5125 17.64 47.5925 17.64C45.9125 17.64 44.1525 17.04 42.9725 16.18L41.8725 18.62C43.1125 19.58 45.3525 20.24 47.5725 20.24ZM58.4311 20H61.6711V8.64H66.1511V6H53.9511V8.64H58.4311V20ZM67.8944 20H71.1344V6H67.8944V20ZM81.1569 20.24C83.5969 20.24 85.6169 19.36 86.9369 17.74L84.8569 15.82C83.9169 16.92 82.7369 17.48 81.3369 17.48C78.7169 17.48 76.8569 15.64 76.8569 13C76.8569 10.36 78.7169 8.52 81.3369 8.52C82.7369 8.52 83.9169 9.08 84.8569 10.16L86.9369 8.24C85.6169 6.64 83.5969 5.76 81.1769 5.76C76.8169 5.76 73.5769 8.78 73.5769 13C73.5769 17.22 76.8169 20.24 81.1569 20.24ZM98.7048 20H102.485L96.3448 12.24L102.145 6H98.5448L92.3448 12.54V6H89.1248V20H92.3448V16.46L94.2248 14.5L98.7048 20Z"
          fill="white"
        />
        <path
          d="M113.465 20.3185C112.956 20.3185 112.496 20.0192 112.292 19.5511L111.107 16.8488C111 16.6058 110.973 16.3361 111.027 16.0754L111.948 11.6012C112.073 11.0026 112.597 10.5759 113.205 10.5759L119.003 10.5789L124.799 10.5819C125.406 10.5819 125.931 11.0085 126.055 11.6041L126.974 16.0813C127.027 16.3421 126.998 16.6117 126.891 16.8547L125.706 19.557C125.501 20.0222 125.042 20.3244 124.532 20.3244L118.997 20.3215L113.465 20.3185Z"
          fill="#353338"
        />
        <path
          opacity="0.2"
          d="M122.837 13.8708C122.837 14.9078 121.118 15.7494 119 15.7464C116.881 15.7464 115.163 14.9049 115.166 13.8678C115.166 13.2159 115.847 12.6381 116.881 12.3033C116.306 12.567 115.942 12.9404 115.942 13.3582C115.942 14.1552 117.26 14.8012 118.887 14.8012C120.514 14.8012 121.835 14.1582 121.835 13.3611C121.835 12.8337 121.258 12.3744 120.398 12.1226C121.824 12.3952 122.837 13.0737 122.837 13.8708Z"
          fill="black"
        />
        <path
          d="M119 15.7451C116.878 15.7451 115.163 14.9065 115.166 13.8665C115.166 12.8294 116.878 11.9908 119 11.9908C121.121 11.9908 122.837 12.8324 122.837 13.8694C122.837 14.9095 121.121 15.748 119 15.7451Z"
          stroke="black"
          stroke-width="0.5"
          stroke-linecap="round"
          stroke-linejoin="round"
        />
        <path
          d="M116.049 20.3194L114.81 16.9949L123.19 16.9978L121.948 20.3194H116.049Z"
          fill="#353338"
        />
        <path
          opacity="0.5"
          d="M111.039 16.6413C110.991 16.4576 110.989 16.265 111.027 16.0754L111.949 11.6012C112.073 11.0026 112.597 10.5759 113.205 10.5759L119.004 10.5789L124.799 10.5819C125.407 10.5819 125.931 11.0085 126.056 11.6041L126.974 16.0813C127.013 16.268 127.007 16.4636 126.962 16.6473L126.053 12.2234C125.931 11.6278 125.407 11.2011 124.799 11.2011L119.001 11.1982H113.205C112.597 11.1952 112.073 11.6249 111.949 12.2204L111.039 16.6413Z"
          fill="white"
        />
        <path
          opacity="0.2"
          d="M126.156 18.0683L125.706 19.0965C125.501 19.5617 125.042 19.8639 124.532 19.8639L113.465 19.858C112.955 19.858 112.496 19.5587 112.292 19.0935L111.841 18.0624C112.102 18.3231 112.461 18.4772 112.843 18.4772L125.154 18.4802C125.537 18.4802 125.895 18.3291 126.156 18.0683Z"
          fill="black"
        />
        <path
          d="M126.993 16.2028C127.008 16.7342 126.647 16.9999 125.908 16.9999C125.169 16.9999 122.867 16.9989 119.001 16.9969C115.133 16.995 112.83 16.994 112.091 16.994C111.354 16.994 110.993 16.7283 111.007 16.1969"
          stroke="black"
          stroke-width="0.5"
          stroke-linecap="round"
          stroke-linejoin="round"
        />
        <path
          d="M116.049 20.3194L114.81 16.9949"
          stroke="black"
          stroke-width="0.5"
          stroke-linecap="round"
          stroke-linejoin="round"
        />
        <path
          d="M121.949 20.3218L123.19 17.0002"
          stroke="black"
          stroke-width="0.5"
          stroke-linecap="round"
          stroke-linejoin="round"
        />
        <path
          d="M113.465 20.3185C112.956 20.3185 112.496 20.0192 112.292 19.5511L111.107 16.8488C111 16.6058 110.973 16.3361 111.027 16.0754L111.948 11.6012C112.073 11.0026 112.597 10.5759 113.205 10.5759L119.003 10.5789L124.799 10.5819C125.406 10.5819 125.931 11.0085 126.055 11.6041L126.974 16.0813C127.027 16.3421 126.998 16.6117 126.891 16.8547L125.706 19.557C125.501 20.0222 125.042 20.3244 124.532 20.3244L118.997 20.3215L113.465 20.3185Z"
          stroke="black"
          stroke-width="0.5"
          stroke-linecap="round"
          stroke-linejoin="round"
        />
        <path
          d="M115.332 14.2776C115.332 14.5265 115.103 14.7458 114.751 14.8821C114.517 14.971 114.229 15.0243 113.918 15.0243C113.607 15.0243 113.32 14.971 113.086 14.8821C112.733 14.7458 112.505 14.5236 112.505 14.2747C112.505 13.8599 113.139 13.525 113.918 13.525C114.701 13.525 115.332 13.8628 115.332 14.2776Z"
          fill="#ED3550"
        />
        <path
          d="M115.332 14.2793V15.4912C115.332 15.9061 114.698 16.2409 113.918 16.2409C113.136 16.2409 112.505 15.9031 112.505 15.4883V14.2764C112.505 14.5253 112.733 14.7475 113.086 14.8838C113.32 14.9727 113.607 15.026 113.918 15.026C114.229 15.026 114.517 14.9727 114.751 14.8838C115.103 14.7475 115.332 14.5282 115.332 14.2793Z"
          fill="#ED3550"
        />
        <path
          opacity="0.2"
          d="M115.332 14.7378V15.4904C115.332 15.9052 114.698 16.2401 113.918 16.2401C113.136 16.2401 112.505 15.9023 112.505 15.4875V14.7378C112.505 15.1526 113.136 15.4875 113.918 15.4875C114.698 15.4904 115.332 15.1526 115.332 14.7378Z"
          fill="black"
        />
        <path
          opacity="0.5"
          d="M112.564 14.4851C112.526 14.4199 112.505 14.3488 112.505 14.2747C112.505 13.8599 113.139 13.525 113.918 13.525C114.701 13.525 115.332 13.8628 115.332 14.2776C115.332 14.3488 115.311 14.4199 115.275 14.488C115.103 14.1739 114.561 13.9458 113.918 13.9458C113.275 13.9458 112.733 14.1739 112.564 14.4851Z"
          fill="white"
        />
        <path
          d="M115.332 14.2776C115.332 14.5265 115.103 14.7458 114.751 14.8821C114.517 14.971 114.229 15.0243 113.918 15.0243C113.607 15.0243 113.32 14.971 113.086 14.8821C112.733 14.7458 112.505 14.5236 112.505 14.2747C112.505 13.8599 113.139 13.525 113.918 13.525C114.701 13.525 115.332 13.8628 115.332 14.2776Z"
          stroke="black"
          stroke-width="0.5"
          stroke-linecap="round"
          stroke-linejoin="round"
        />
        <path
          d="M115.332 14.2793V15.4912C115.332 15.9061 114.698 16.2409 113.918 16.2409C113.136 16.2409 112.505 15.9031 112.505 15.4883V14.2764C112.505 14.5253 112.733 14.7475 113.086 14.8838C113.32 14.9727 113.607 15.026 113.918 15.026C114.229 15.026 114.517 14.9727 114.751 14.8838C115.103 14.7475 115.332 14.5282 115.332 14.2793V14.2793Z"
          stroke="black"
          stroke-width="0.5"
          stroke-linecap="round"
          stroke-linejoin="round"
        />
        <path
          d="M124.082 13.5276C124.864 13.5276 125.495 13.8654 125.495 14.2802C125.495 14.5291 125.267 14.7484 124.914 14.8847C124.68 14.9765 124.393 15.0299 124.082 15.0299C123.771 15.0299 123.483 14.9736 123.249 14.8847C122.897 14.7484 122.668 14.5261 122.668 14.2772C122.668 13.8654 123.303 13.5276 124.082 13.5276Z"
          fill="#ED3550"
        />
        <path
          d="M123.249 14.8859C123.483 14.9748 123.771 15.0311 124.082 15.0311C124.393 15.0311 124.68 14.9777 124.914 14.8859C125.267 14.7496 125.495 14.5303 125.495 14.2814V15.4933C125.495 15.9081 124.861 16.243 124.082 16.243C123.3 16.243 122.668 15.9052 122.668 15.4933V14.2784C122.668 14.5273 122.897 14.7496 123.249 14.8859Z"
          fill="#ED3550"
        />
        <path
          opacity="0.2"
          d="M124.082 15.4947C124.861 15.4947 125.495 15.1569 125.495 14.745V15.4947C125.495 15.9095 124.861 16.2443 124.082 16.2443C123.3 16.2443 122.668 15.9066 122.668 15.4947V14.7421C122.668 15.1569 123.303 15.4947 124.082 15.4947Z"
          fill="black"
        />
        <path
          opacity="0.5"
          d="M124.082 13.9483C123.439 13.9483 122.897 14.1765 122.728 14.4906C122.689 14.4224 122.668 14.3513 122.668 14.2772C122.668 13.8654 123.303 13.5276 124.082 13.5276C124.864 13.5276 125.495 13.8654 125.495 14.2802C125.495 14.3513 125.474 14.4224 125.439 14.4906C125.267 14.1765 124.725 13.9483 124.082 13.9483Z"
          fill="white"
        />
        <path
          d="M124.082 13.5276C124.864 13.5276 125.495 13.8654 125.495 14.2802C125.495 14.5291 125.267 14.7484 124.914 14.8847C124.68 14.9765 124.393 15.0299 124.082 15.0299C123.771 15.0299 123.483 14.9736 123.249 14.8847C122.897 14.7484 122.668 14.5261 122.668 14.2772C122.668 13.8654 123.303 13.5276 124.082 13.5276V13.5276Z"
          stroke="black"
          stroke-width="0.5"
          stroke-linecap="round"
          stroke-linejoin="round"
        />
        <path
          d="M123.249 14.8859C123.483 14.9748 123.771 15.0311 124.082 15.0311C124.393 15.0311 124.68 14.9777 124.914 14.8859C125.267 14.7496 125.495 14.5303 125.495 14.2814V15.4933C125.495 15.9081 124.861 16.243 124.082 16.243C123.3 16.243 122.668 15.9052 122.668 15.4933V14.2784C122.668 14.5273 122.897 14.7496 123.249 14.8859V14.8859Z"
          stroke="black"
          stroke-width="0.5"
          stroke-linecap="round"
          stroke-linejoin="round"
        />
        <path
          d="M119 11.6356H119.681C120.274 12.1038 120.642 12.5058 120.786 12.8416C121 13.3453 119.817 13.8164 119 13.8164C118.182 13.8164 117 13.3453 117.216 12.8416C117.358 12.5058 117.726 12.1038 118.318 11.6356H119Z"
          fill="#353338"
        />
        <path
          opacity="0.2"
          d="M120.23 13.5453C119.951 13.6727 119.61 13.7646 119.29 13.8002C119.581 13.6313 119.75 13.4179 119.658 13.1987C119.514 12.8628 119.146 12.4608 118.556 11.9927H117.91C117.975 11.9305 118.037 11.8771 118.09 11.8297H119.353C119.945 12.2979 120.313 12.6999 120.455 13.0357C120.532 13.2164 120.428 13.3942 120.23 13.5453Z"
          fill="#371A45"
        />
        <path
          d="M119 11.6356H119.681C120.274 12.1038 120.642 12.5058 120.786 12.8416C121 13.3453 119.817 13.8164 119 13.8164C118.182 13.8164 117 13.3453 117.216 12.8416C117.358 12.5058 117.726 12.1038 118.318 11.6356H119Z"
          stroke="black"
          stroke-width="0.5"
          stroke-linecap="round"
          stroke-linejoin="round"
        />
        <path
          d="M119.685 7.56922V11.5427C119.685 11.919 119.377 12.2242 119 12.2242C118.624 12.2242 118.319 11.919 118.319 11.5427L118.322 7.56626C118.322 7.18995 118.627 6.88475 119.003 6.88772C119.19 6.88772 119.362 6.96179 119.486 7.08624C119.608 7.21069 119.685 7.37959 119.685 7.56922Z"
          fill="#C6C6C6"
        />
        <path
          opacity="0.2"
          d="M119.684 7.56922V8.81075C119.462 8.84927 119.234 8.87001 119.003 8.87001C118.769 8.87001 118.541 8.84927 118.321 8.80779V7.56626C118.321 7.18995 118.626 6.88475 119.003 6.88772C119.189 6.88772 119.361 6.96179 119.486 7.08624C119.607 7.21069 119.684 7.37959 119.684 7.56922Z"
          fill="black"
        />
        <path
          d="M119 12.2242C118.624 12.2242 118.319 11.919 118.319 11.5427L118.322 7.56626C118.322 7.18995 118.627 6.88475 119.003 6.88772C119.38 6.88772 119.685 7.19291 119.685 7.56922L119.682 11.5427C119.682 11.919 119.377 12.2242 119 12.2242Z"
          stroke="black"
          stroke-width="0.5"
          stroke-linecap="round"
          stroke-linejoin="round"
        />
        <path
          d="M122.841 4.19839C122.841 6.31698 121.122 8.03557 119.004 8.0326C117.501 8.0326 116.204 7.17035 115.572 5.91401C115.315 5.39843 115.169 4.8147 115.169 4.19542C115.169 2.07682 116.888 0.361206 119.007 0.361206C119.946 0.361206 120.808 0.70196 121.475 1.26494C122.31 1.96719 122.841 3.02205 122.841 4.19839Z"
          fill="#ED3550"
        />
        <circle cx="118.11" cy="3.6062" r="1.57043" fill="#BE2A40" />
        <path
          d="M119.004 8.0326C116.882 8.0326 115.166 6.31698 115.169 4.19542C115.169 2.07386 116.885 0.361206 119.007 0.361206C121.128 0.361206 122.841 2.07683 122.841 4.19839C122.841 6.31995 121.125 8.03557 119.004 8.0326V8.0326Z"
          stroke="black"
          stroke-width="0.5"
          stroke-linecap="round"
          stroke-linejoin="round"
        />
      </svg>