<svg width="24" height="24" viewBox="0 0 24 24" fill="none" xmlns="http://www.w3.org/2000/svg">
<g clip-path="url(#clip0_28_7405)">
<path d="M12 0C9.62664 0 7.30656 0.703788 5.33317 2.02236C3.35978 3.34094 1.8217 5.21509 0.913452 7.4078C0.00519946 9.60051 -0.232441 12.0133 0.230582 14.3411C0.693605 16.6689 1.8365 18.8071 3.51473 20.4853C5.19296 22.1635 7.33116 23.3064 9.65893 23.7694C11.9867 24.2324 14.3995 23.9948 16.5922 23.0866C18.7849 22.1783 20.6591 20.6402 21.9777 18.6668C23.2962 16.6935 24 14.3734 24 12C24 8.8174 22.7357 5.76516 20.4853 3.51472C18.2349 1.26428 15.1826 0 12 0V0ZM19.5 6.31364L18.3027 7.45773C18.2516 7.49561 18.2119 7.54679 18.1878 7.6057C18.1638 7.66461 18.1564 7.72898 18.1664 7.79182V16.2095C18.1565 16.2722 18.164 16.3363 18.188 16.395C18.2121 16.4537 18.2517 16.5046 18.3027 16.5423L19.4714 17.6877V17.9373H13.59V17.6864L14.8023 16.5136C14.9196 16.3964 14.9196 16.3595 14.9196 16.1795V9.37909L11.55 17.9155H11.0932L7.1741 9.37909V15.1064C7.15744 15.225 7.16834 15.3459 7.20594 15.4596C7.24354 15.5734 7.30684 15.6769 7.39092 15.7623L8.96592 17.6714V17.9223H4.50001V17.6755L6.07501 15.7664C6.15896 15.6795 6.22075 15.5736 6.25517 15.4578C6.28959 15.342 6.29561 15.2196 6.27274 15.1009V8.48591C6.28125 8.3952 6.26856 8.30376 6.23566 8.2188C6.20276 8.13384 6.15057 8.05769 6.08319 7.99636L4.68955 6.31364V6.06273H9.03683L12.3982 13.4182L15.3532 6.06273H19.5V6.31364Z" fill="white"/>
</g>
<defs>
<clipPath id="clip0_28_7405">
<rect width="24" height="24" fill="white"/>
</clipPath>
</defs>
</svg>
